<svg width="72" height="36" viewBox="0 0 72 36" fill="none" xmlns="http://www.w3.org/2000/svg">
<path d="M60.5378 35.998C59.7292 35.7117 59.4449 35.2015 59.5639 34.262C59.572 34.1934 59.5841 34.1229 59.5942 34.0543C59.7071 33.3446 60.1466 33.0018 60.9269 33.02C61.5943 33.0361 61.9915 33.4172 62.06 34.1128C62.0721 34.2418 62.0782 34.3729 62.0782 34.5039C62.0721 35.3971 61.8382 35.7238 61.0096 35.998H60.5378ZM60.0518 34.4817C60.068 34.6189 60.078 34.7681 60.1043 34.9132C60.1768 35.3084 60.3523 35.4737 60.7515 35.508C60.8886 35.5201 61.0277 35.4879 61.1668 35.4838C61.3342 35.4778 61.435 35.387 61.4491 35.2298C61.4854 34.8608 61.5459 34.4858 61.5237 34.1188C61.4995 33.6894 61.2354 33.5039 60.7676 33.4998C60.2535 33.4958 60.1869 33.5523 60.0982 34.0805C60.076 34.2096 60.0659 34.3406 60.0498 34.4817H60.0518Z" fill="white"/>
<path d="M41.4762 35.9981C41.2383 35.9235 40.9983 35.8489 40.7342 35.7663C40.8007 35.5989 40.8532 35.4658 40.8874 35.3832C41.2846 35.4275 41.6516 35.48 42.0186 35.5062C42.1395 35.5142 42.2948 35.5122 42.3129 35.3247C42.3311 35.1412 42.327 34.9658 42.1274 34.8791C42.0004 34.8247 41.8653 34.7884 41.7322 34.742C41.583 34.6916 41.4298 34.6533 41.2887 34.5868C40.9338 34.4214 40.8088 34.1734 40.8471 33.754C40.8774 33.4234 41.1032 33.1189 41.4439 33.0786C41.7746 33.0383 42.1234 33.0524 42.45 33.1109C42.7746 33.1673 42.7908 33.2762 42.7162 33.6855C42.6638 33.9819 42.4581 33.8629 42.2787 33.8851C42.2484 33.7561 42.2202 33.6411 42.1839 33.4919C42.0105 33.4919 41.8189 33.4556 41.6516 33.504C41.5367 33.5383 41.4157 33.6734 41.3713 33.7903C41.3088 33.9557 41.4117 34.1008 41.581 34.1593C41.8109 34.24 42.0508 34.2924 42.2827 34.373C42.7867 34.5525 42.9763 35.0283 42.7585 35.5142C42.6194 35.8247 42.3371 35.9074 42.0528 35.9981H41.4762Z" fill="white"/>
<path d="M19.8439 35.998C19.7108 35.7701 19.5576 35.5504 19.4447 35.3125C19.1886 34.7701 18.9527 34.6491 18.3257 34.8044V35.9355C18.2249 35.9415 18.1422 35.9456 18.0192 35.9536C18.0192 35.8508 18.0192 35.7681 18.0192 35.6855C18.0192 34.9274 18.0273 34.1672 18.0132 33.4091C18.0091 33.1974 18.0777 33.1027 18.2833 33.0926C18.5354 33.0825 18.7874 33.0523 19.0374 33.0623C19.3741 33.0764 19.6503 33.2095 19.7673 33.5543C19.8923 33.9213 19.7874 34.3205 19.5132 34.5584C19.4689 34.5967 19.4205 34.631 19.4245 34.6269C19.5858 34.9495 19.731 35.252 19.8883 35.5463C19.9326 35.627 20.0072 35.7137 20.0899 35.748C20.2955 35.8327 20.2068 35.9093 20.106 36H19.8439V35.998ZM18.3277 34.4898C18.5696 34.4898 18.7854 34.4777 18.9991 34.4939C19.2289 34.51 19.362 34.391 19.4487 34.2055C19.6645 33.7519 19.4225 33.3446 18.9225 33.3224C18.7753 33.3164 18.6241 33.3164 18.4789 33.3386C18.4225 33.3466 18.3358 33.4253 18.3337 33.4736C18.3216 33.8023 18.3277 34.1309 18.3277 34.4898Z" fill="white"/>
<path d="M5.45601 35.9981C4.78662 35.7239 4.55475 35.3449 4.585 34.5404C4.59508 34.2984 4.61927 34.0504 4.68178 33.8165C4.82695 33.2681 5.18584 33.0322 5.80281 33.0423C6.38147 33.0504 6.72826 33.2883 6.82303 33.8528C6.89158 34.25 6.8815 34.6694 6.84117 35.0706C6.79077 35.5727 6.47422 35.8812 5.98024 35.9981H5.45601ZM6.62544 34.5323C6.59519 34.3226 6.58309 34.1109 6.53269 33.9113C6.43591 33.5262 6.19598 33.3367 5.80281 33.3246C5.64756 33.3205 5.48223 33.3246 5.33907 33.375C5.22415 33.4153 5.09107 33.5141 5.04672 33.621C4.84711 34.1008 4.833 34.6049 4.94994 35.1069C5.04873 35.5283 5.31689 35.7158 5.77256 35.7158C6.28872 35.7158 6.40768 35.6271 6.53067 35.1251C6.57705 34.9315 6.59519 34.7319 6.62544 34.5323Z" fill="white"/>
<path d="M22.6788 35.998C22.6223 35.9798 22.5659 35.9576 22.5074 35.9435C22.1747 35.8649 22.1042 35.7802 22.1042 35.4415C22.1042 34.6733 22.1042 33.9071 22.1042 33.1147H23.818V33.3607H22.4167V34.3668H23.695C23.701 34.4596 23.7071 34.5322 23.7131 34.631H22.4046C22.4046 34.9576 22.3965 35.26 22.4126 35.5584C22.4147 35.6048 22.5296 35.6794 22.5941 35.6794C22.9933 35.6915 23.3925 35.6855 23.822 35.6855C23.8361 35.7238 23.8623 35.7943 23.8966 35.883C23.7595 35.9234 23.6385 35.9597 23.5175 35.996H22.6768L22.6788 35.998Z" fill="white"/>
<path d="M14.7509 35.998C14.0492 35.7883 14.1964 35.7521 14.1883 35.1714C14.1783 34.4919 14.1863 33.8124 14.1863 33.1128H15.8921C15.9566 33.2801 15.9284 33.3668 15.7207 33.3628C15.3195 33.3547 14.9202 33.3608 14.5029 33.3608V34.3669H15.7832V34.6371H14.4868C14.4868 34.9536 14.4787 35.248 14.4948 35.5404C14.4968 35.5928 14.5976 35.6775 14.6561 35.6795C15.013 35.6896 15.3719 35.6976 15.7267 35.6734C15.9042 35.6613 15.9727 35.6996 15.9485 35.8952C15.8336 35.9275 15.7126 35.9638 15.5917 35.998H14.7509Z" fill="white"/>
<path d="M49.4565 33.8385C49.3033 34.2176 49.146 34.5966 49.0008 34.9797C48.9504 35.1128 48.8879 35.1733 48.7367 35.1672C48.5915 35.1632 48.5008 35.139 48.4444 34.9817C48.3052 34.5987 48.1419 34.2216 47.9907 33.8446C47.9685 33.8446 47.9463 33.8466 47.9221 33.8486V35.9314H47.3616C47.3999 34.9858 47.4362 34.0462 47.4745 33.0865H48.1318C48.3173 33.5805 48.5048 34.0825 48.7206 34.6612C48.8355 34.3628 48.9222 34.1329 49.0109 33.903C49.0512 33.7962 49.0916 33.6913 49.1319 33.5845C49.2703 33.2135 49.5499 33.0448 49.9707 33.0784C50.009 34.02 50.0473 34.9656 50.0856 35.9294H49.5432V33.8446C49.515 33.8426 49.4868 33.8405 49.4585 33.8385H49.4565Z" fill="white"/>
<path d="M66.3526 35.9497C66.1752 35.9497 66.0078 35.9699 65.8506 35.9416C65.7699 35.9275 65.6792 35.8388 65.6348 35.7602C65.3163 35.1896 65.0098 34.6109 64.6973 34.0363C64.657 33.9617 64.6146 33.8891 64.538 33.7581V35.9336H64.0521V33.0645C64.2255 33.0645 64.3989 33.0463 64.5662 33.0725C64.6388 33.0826 64.7195 33.1693 64.7598 33.2419C65.0844 33.8306 65.3989 34.4234 65.7175 35.0142C65.7578 35.0888 65.8022 35.1593 65.8667 35.2702V33.0826H66.3546V35.9497H66.3526Z" fill="white"/>
<path d="M12.2346 33.149C11.9967 34.0402 11.7628 34.9334 11.5148 35.8205C11.4987 35.879 11.3716 35.9476 11.3071 35.9395C11.2184 35.9274 11.0894 35.8629 11.0611 35.7903C10.8958 35.3407 10.7547 34.881 10.6075 34.4253C10.5813 34.3467 10.555 34.268 10.5067 34.1208C10.3776 34.4938 10.2728 34.8043 10.1619 35.1128C10.0752 35.3507 9.99453 35.5907 9.88364 35.8185C9.85138 35.8851 9.7304 35.9355 9.64572 35.9415C9.58523 35.9455 9.47636 35.875 9.46224 35.8185C9.21828 34.9294 8.98439 34.0382 8.74446 33.1268C8.87148 33.1026 8.95415 33.0885 9.06504 33.0684C9.26062 33.9031 9.45418 34.7318 9.64774 35.5584C9.6679 35.5604 9.69008 35.5625 9.71024 35.5645C9.8292 35.2419 9.95219 34.9193 10.0691 34.5947C10.1276 34.4313 10.1982 34.266 10.2304 34.0966C10.2909 33.7902 10.3252 33.4797 10.3776 33.1309C10.3877 33.1309 10.4704 33.1208 10.551 33.1107C10.7849 33.9353 11.0168 34.7439 11.2466 35.5524C11.2728 35.5524 11.299 35.5524 11.3273 35.5504C11.418 35.1955 11.5148 34.8427 11.5974 34.4878C11.6902 34.0966 11.791 33.7075 11.8495 33.3103C11.8898 33.0361 12.0108 33.0502 12.2366 33.149H12.2346Z" fill="white"/>
<path d="M52.628 35.9333H52.1159C52.1159 35.6853 52.1159 35.4534 52.1159 35.2195C52.1159 34.6086 52.1219 33.9977 52.1118 33.3868C52.1078 33.2013 52.1663 33.1045 52.3518 33.0964C52.6804 33.0823 53.0131 33.0339 53.3397 33.0622C53.9002 33.1085 54.1805 33.4452 54.1886 33.9977C54.1946 34.6026 53.9103 34.9635 53.3518 35.0441C53.1966 35.0663 53.0373 35.0764 52.882 35.0663C52.6925 35.0542 52.6098 35.1107 52.626 35.3143C52.6421 35.5119 52.63 35.7115 52.63 35.9333H52.628ZM52.628 33.5239C52.628 33.7336 52.628 33.8969 52.628 34.0622C52.628 34.4574 52.8269 34.6348 53.2248 34.5945C53.5958 34.5562 53.6502 34.4997 53.6684 34.1368C53.6905 33.7134 53.5454 33.54 53.124 33.5057C52.9708 33.4936 52.8155 33.5158 52.626 33.5239H52.628Z" fill="white"/>
<path d="M31.4091 35.9133C31.4091 35.627 31.4091 35.3326 31.4091 35.0362C31.4091 34.4858 31.4192 33.9334 31.403 33.3829C31.397 33.1773 31.4716 33.0906 31.6611 33.0825C31.9394 33.0724 32.2196 33.0442 32.4959 33.0684C32.7801 33.0926 33.0201 33.2317 33.1108 33.5261C33.2076 33.8366 33.1773 34.1309 32.9293 34.3729C32.8931 34.4072 32.8568 34.4414 32.8043 34.4919C33.0544 34.6169 33.26 34.754 33.2882 35.0443C33.3366 35.5564 33.1491 35.8407 32.635 35.9032C32.2418 35.9516 31.8386 35.9133 31.4091 35.9133ZM31.7236 35.6935C32.0301 35.6754 32.3083 35.6754 32.5826 35.6371C32.881 35.5947 33.0039 35.4395 33.0039 35.1653C33.0039 34.9072 32.8668 34.7157 32.5906 34.6753C32.3104 34.633 32.0241 34.6411 31.7236 34.6269V35.6935ZM31.7095 34.3729C31.9958 34.3729 32.2398 34.381 32.4817 34.3689C32.5584 34.3648 32.6572 34.3285 32.7035 34.2721C32.8568 34.0886 32.9132 33.8729 32.8326 33.639C32.7519 33.4031 32.5503 33.3426 32.3346 33.3244C32.1793 33.3103 32.02 33.3123 31.8648 33.3365C31.8063 33.3466 31.7176 33.4333 31.7135 33.4898C31.6974 33.7741 31.7055 34.0604 31.7055 34.3749L31.7095 34.3729Z" fill="white"/>
<path d="M25.9572 35.9253V33.1348C26.439 33.0219 26.9149 32.9755 27.3887 33.161C27.679 33.2739 27.8746 33.5119 27.9129 33.8042C27.9653 34.2216 27.9895 34.6551 27.9432 35.0704C27.8867 35.5684 27.5439 35.8648 27.05 35.9192C26.6991 35.9576 26.3382 35.9273 25.9592 35.9273L25.9572 35.9253ZM26.2697 33.3506V35.6975C26.6064 35.6753 26.9169 35.6531 27.2294 35.6329C27.4068 35.6208 27.5137 35.5321 27.5722 35.3628C27.7375 34.8789 27.7718 34.3929 27.6367 33.897C27.5742 33.6651 27.4371 33.4897 27.2113 33.3989C26.9008 33.2759 26.5822 33.3062 26.2717 33.3485L26.2697 33.3506Z" fill="white"/>
<path d="M56.0758 33.0764H56.5657V35.4636H57.8279V35.9254H56.0758V33.0764Z" fill="white"/>
<path d="M1.19364 35.0201V35.9355H0.891207C0.891207 35.8407 0.891207 35.746 0.891207 35.6532C0.891207 34.885 0.895239 34.1169 0.889191 33.3487C0.889191 33.1995 0.927499 33.1168 1.08477 33.1087C1.3872 33.0946 1.69367 33.0442 1.99409 33.0704C2.48606 33.1128 2.75623 33.4656 2.76228 33.9959C2.76833 34.5423 2.52638 34.8709 2.0324 34.9516C1.76827 34.9939 1.4981 34.998 1.19364 35.0201ZM1.21179 34.7298C1.54245 34.7116 1.86304 34.6975 2.1816 34.6754C2.22193 34.6733 2.26628 34.6471 2.29653 34.6189C2.64131 34.2963 2.46993 33.4838 2.01627 33.3708C1.76424 33.3083 1.48801 33.3325 1.21179 33.3164V34.7298Z" fill="white"/>
<path d="M35.0443 33.145C35.1875 33.1087 35.2702 33.0886 35.3306 33.0745C35.5968 33.5543 35.8468 34.0221 36.117 34.4778C36.2924 34.7742 36.373 34.7721 36.5505 34.4697C36.8146 34.0201 37.0606 33.5584 37.3287 33.0765C37.3852 33.0906 37.4739 33.1108 37.5909 33.139C37.3287 33.7681 37.0203 34.3467 36.6089 34.8709C36.5485 34.9496 36.4981 35.0564 36.49 35.1532C36.4739 35.4052 36.4839 35.6573 36.4839 35.9295H36.2057C36.1976 35.9174 36.1876 35.9093 36.1876 35.9033C36.1795 35.5907 36.242 35.254 36.1452 34.9697C36.0545 34.6975 35.7783 34.4919 35.623 34.2358C35.4153 33.8951 35.246 33.5322 35.0443 33.147V33.145Z" fill="white"/>
<path d="M44.8131 33.0745H45.299V35.9335H44.8131V33.0745Z" fill="white"/>
<path d="M2.31868 15.8457C1.86099 16.128 1.04038 16.7409 1.09079 18.7733V19.5354H0V21.3682H1.09079V29.6449H3.6736V21.3682H5.82896V19.5354H3.6736V18.8217C3.6736 18.3075 3.75425 17.9608 3.91756 17.7793C4.07886 17.5978 4.42767 17.126 5.87332 17.3176L5.90558 15.4525C5.19989 15.2247 3.53246 15.0957 2.31868 15.8477V15.8457Z" fill="white"/>
<path d="M15.382 26.3221L15.4102 23.199C15.4102 22.0376 15.0755 21.2392 14.8456 20.8057C14.6158 20.3702 14.2186 20.0133 13.654 19.731C13.0895 19.4488 12.2326 19.3076 11.0793 19.3076C9.81109 19.3076 9.06709 19.598 8.42391 20.0677C7.78073 20.5375 7.16376 21.4247 7.01657 22.7816H9.50059C9.50059 22.7816 9.5268 20.9811 11.3938 21.0759C12.2729 21.1202 12.7326 21.9469 12.7326 22.461L12.7064 23.4429C12.7064 23.4429 11.3596 23.3038 10.1438 23.4873C8.15777 23.7877 7.24441 24.9108 6.98028 25.3584C6.71615 25.806 6.5851 26.3161 6.5851 26.8867C6.5851 27.7496 6.87544 28.4634 7.4541 29.0279C8.03276 29.5925 8.82514 29.8747 9.83125 29.8747C10.4018 29.8747 10.9382 29.7639 11.4402 29.5421C11.9423 29.3203 12.3576 29.0662 12.7891 28.2678C12.8072 28.3182 12.9968 29.6469 12.9968 29.6469H15.5856C15.3578 29.165 15.382 27.2133 15.382 26.3241V26.3221ZM12.7165 26.5117C12.5491 27.4069 11.6096 27.9311 10.922 27.9311C10.0147 27.9311 9.29291 27.4371 9.3655 26.429C9.44816 25.2656 10.5833 24.941 12.8254 25.0015C12.8254 25.0015 12.8859 25.6144 12.7165 26.5137V26.5117Z" fill="white"/>
<path d="M66.4614 26.7272L66.4897 23.604C66.4897 22.4426 66.155 21.6442 65.9251 21.2107C65.6953 20.7752 65.2981 20.4183 64.7335 20.1361C64.169 19.8538 63.3121 19.7126 62.1588 19.7126C60.8906 19.7126 60.1466 20.003 59.5034 20.4728C58.8602 20.9426 58.2432 21.8297 58.096 23.1866H60.5801C60.5801 23.1866 60.6063 21.3861 62.4733 21.4809C63.3524 21.5253 63.8121 22.3519 63.8121 22.8661L63.7859 23.848C63.7859 23.848 62.439 23.7088 61.2232 23.8923C59.2372 24.1927 58.3239 25.3158 58.0597 25.7634C57.7956 26.211 57.6646 26.7211 57.6646 27.2917C57.6646 28.1547 57.9549 28.8684 58.5336 29.433C59.1122 29.9975 59.9046 30.2798 60.9107 30.2798C61.4813 30.2798 62.0176 30.1689 62.5197 29.9471C63.0217 29.7253 63.4371 29.4713 63.8685 28.6728C63.8867 28.7232 64.0762 30.0519 64.0762 30.0519H66.6651C66.4372 29.5701 66.4614 27.6183 66.4614 26.7292V26.7272ZM63.796 26.9167C63.6286 27.8119 62.689 28.3361 62.0015 28.3361C61.0942 28.3361 60.3724 27.8421 60.445 26.834C60.5276 25.6706 61.6628 25.346 63.9048 25.4065C63.9048 25.4065 63.9653 26.0195 63.796 26.9187V26.9167Z" fill="white"/>
<path d="M21.7028 21.1445C23.1303 21.1646 23.5981 22.4732 23.6868 22.9994L26.2515 23.068C26.0438 21.7856 25.2796 20.6303 24.5538 20.1001C23.8279 19.5698 22.8501 19.3057 21.6181 19.3057C20.114 19.3057 18.9224 19.7714 18.0413 20.7009C17.1602 21.6304 16.7187 22.9309 16.7187 24.5983C16.7187 26.2657 17.1582 27.54 18.0353 28.4735C18.9144 29.407 20.0919 29.8728 21.5698 29.8728C22.8702 29.8728 25.6103 29.3748 26.2495 25.9976L23.6848 25.9714C23.5517 26.675 22.8581 27.9312 21.6988 27.9312C21.0193 27.9312 20.4467 27.6348 20.0455 27.1408C19.6422 26.6468 19.2813 25.6306 19.2813 24.433C19.2813 23.3543 19.7148 21.1163 21.7008 21.1445H21.7028Z" fill="white"/>
<path d="M31.1974 17.6017L28.4654 17.5815V19.9607H26.9996V21.7471H28.4654V26.2171C28.4654 27.1768 28.5259 27.8099 28.5521 28.1285C28.6529 29.3665 29.2497 30.548 33.0503 29.9875L33.0463 28.3201C33.0463 28.3201 31.2034 28.9149 31.1954 26.9147V21.7451H33.2741V19.9587H31.1954V17.5997L31.1974 17.6017Z" fill="white"/>
<path d="M39.1998 19.7107C38.2098 19.7107 37.3146 19.9305 36.5122 20.368C35.7097 20.8055 35.0887 21.4406 34.6512 22.2713C34.2137 23.102 33.9939 23.963 33.9939 24.8501C33.9939 26.0115 34.2137 26.9974 34.6512 27.8059C35.0887 28.6144 35.7278 29.2294 36.5686 29.6467C37.4094 30.0661 38.2925 30.2758 39.218 30.2758C40.714 30.2758 41.956 29.7738 42.944 28.7677C43.9299 27.7616 44.4239 26.4954 44.4239 24.965C44.4239 23.4347 43.936 22.1927 42.9581 21.2007C41.9802 20.2067 40.7281 19.7107 39.1998 19.7107ZM40.964 27.5156C40.4922 28.0983 39.9055 28.3906 39.2079 28.3906C38.5103 28.3906 37.9235 28.0983 37.4477 27.5156C36.9719 26.9329 36.734 26.0921 36.734 24.9933C36.734 23.8944 36.9719 23.0556 37.4477 22.4709C37.9235 21.8882 38.5103 21.5959 39.2079 21.5959C39.9055 21.5959 40.4902 21.8882 40.964 22.4709C41.4358 23.0536 41.6738 23.8883 41.6738 24.9711C41.6738 26.0538 41.4379 26.9309 40.964 27.5136V27.5156Z" fill="white"/>
<path d="M49.8717 20.098C49.0531 20.6283 48.7245 21.5376 48.7245 21.5376V19.9408H45.9421V30.0502H48.7023V26.9271C48.7023 25.2072 48.7789 24.0781 48.9322 23.5377C49.0854 22.9994 49.8314 21.6465 51.8779 21.8965V19.8339C51.8779 19.8339 50.7992 19.4952 49.8717 20.096V20.098Z" fill="white"/>
<path d="M55.6826 19.9385H53.0998V30.0479H55.6826V19.9385Z" fill="white"/>
<path d="M68.7459 0H60.7051C59.9268 0 56.7311 0.985943 56.7048 1.02224H65.7074C67.0925 1.02224 68.2136 2.01624 68.2136 3.24414V13.6338C68.2136 14.8597 67.1752 15.7711 65.79 15.7711H57.098L53.1784 18.7007H55.5334L60.9531 16.8598H68.7459C70.131 16.8598 71.252 15.6178 71.252 14.2327V2.50619C71.252 1.12103 70.129 0 68.7459 0Z" fill="white"/>
<path d="M60.7393 13.773V9.33521H63.0681V10.0732H61.6104V11.1055H62.8544V11.8434H61.6104V13.773H60.7393Z" fill="white"/>
<path d="M66.2154 12.1196C66.1368 10.5853 64.6629 10.6821 64.4754 10.7748L64.5137 10.0631H66.0219V9.28076H63.8101L63.5984 11.6378C63.5984 11.6378 64.046 11.418 64.3665 11.418C64.8706 11.418 65.2799 11.787 65.2799 12.2446C65.2799 12.7023 64.8706 13.0713 64.3665 13.0713C64.0601 13.0713 63.7355 12.9402 63.5721 12.7285L63.3564 13.4967C63.3564 13.4967 63.8726 13.8778 64.7214 13.8778C65.2255 13.8778 66.284 13.4544 66.2154 12.1196Z" fill="white"/>
</svg>
