<svg width="301" height="153" viewBox="0 0 301 153" fill="none" xmlns="http://www.w3.org/2000/svg">
<path d="M255.108 152.033C251.714 150.831 250.521 148.69 251.02 144.746C251.054 144.459 251.105 144.162 251.147 143.875C251.621 140.896 253.466 139.457 256.742 139.533C259.543 139.601 261.21 141.2 261.498 144.12C261.549 144.662 261.574 145.212 261.574 145.762C261.549 149.511 260.567 150.882 257.089 152.033H255.108ZM253.068 145.669C253.136 146.244 253.178 146.871 253.289 147.48C253.593 149.139 254.329 149.833 256.005 149.977C256.581 150.027 257.165 149.892 257.749 149.875C258.451 149.85 258.874 149.469 258.934 148.809C259.086 147.26 259.34 145.686 259.247 144.145C259.145 142.343 258.036 141.564 256.073 141.547C253.915 141.53 253.636 141.767 253.263 143.985C253.17 144.526 253.128 145.076 253.06 145.669H253.068Z" fill="white"/>
<path d="M175.096 152.033C174.097 151.72 173.09 151.407 171.981 151.06C172.261 150.358 172.481 149.799 172.625 149.452C174.292 149.638 175.832 149.858 177.373 149.968C177.88 150.002 178.532 149.994 178.608 149.207C178.684 148.436 178.667 147.7 177.83 147.336C177.296 147.108 176.729 146.955 176.171 146.761C175.544 146.549 174.901 146.388 174.309 146.109C172.819 145.415 172.295 144.374 172.455 142.614C172.582 141.226 173.53 139.948 174.96 139.778C176.348 139.609 177.813 139.668 179.184 139.914C180.546 140.151 180.614 140.608 180.301 142.326C180.081 143.57 179.218 143.071 178.464 143.164C178.337 142.622 178.219 142.14 178.067 141.513C177.339 141.513 176.535 141.361 175.832 141.564C175.35 141.708 174.842 142.275 174.656 142.766C174.393 143.46 174.825 144.069 175.536 144.315C176.501 144.653 177.508 144.873 178.481 145.212C180.597 145.965 181.393 147.962 180.479 150.002C179.895 151.305 178.71 151.652 177.516 152.033H175.096Z" fill="white"/>
<path d="M84.2928 152.033C83.7342 151.077 83.091 150.154 82.617 149.156C81.5422 146.879 80.552 146.371 77.9199 147.023V151.771C77.4967 151.796 77.1497 151.813 76.6334 151.847C76.6334 151.415 76.6334 151.068 76.6334 150.721C76.6334 147.539 76.6673 144.348 76.608 141.166C76.5911 140.278 76.8789 139.88 77.7421 139.837C78.8001 139.795 79.858 139.668 80.9074 139.71C82.3208 139.77 83.4803 140.328 83.9711 141.776C84.4959 143.316 84.0558 144.992 82.9048 145.99C82.7186 146.151 82.5154 146.295 82.5324 146.278C83.2094 147.632 83.8188 148.902 84.4789 150.137C84.6651 150.476 84.9783 150.84 85.3253 150.984C86.1885 151.339 85.8162 151.661 85.393 152.042H84.2928V152.033ZM77.9283 145.703C78.9439 145.703 79.8495 145.652 80.7466 145.719C81.7114 145.787 82.27 145.288 82.6339 144.509C83.5395 142.605 82.5239 140.895 80.425 140.802C79.8072 140.777 79.1724 140.777 78.5631 140.87C78.3261 140.904 77.9622 141.234 77.9537 141.437C77.9029 142.817 77.9283 144.196 77.9283 145.703Z" fill="white"/>
<path d="M23.8986 152.034C21.0887 150.883 20.1155 149.292 20.2424 145.915C20.2847 144.899 20.3863 143.858 20.6487 142.876C21.258 140.574 22.7645 139.584 25.3543 139.626C27.7832 139.66 29.2389 140.659 29.6367 143.029C29.9245 144.696 29.8821 146.456 29.7129 148.141C29.5013 150.248 28.1726 151.543 26.099 152.034H23.8986ZM28.8073 145.881C28.6804 145.001 28.6296 144.112 28.418 143.274C28.0118 141.658 27.0046 140.862 25.3543 140.811C24.7026 140.794 24.0086 140.811 23.4077 141.023C22.9253 141.192 22.3667 141.607 22.1805 142.055C21.3426 144.07 21.2834 146.185 21.7743 148.293C22.189 150.062 23.3146 150.849 25.2273 150.849C27.3939 150.849 27.8933 150.476 28.4095 148.369C28.6042 147.557 28.6804 146.719 28.8073 145.881Z" fill="white"/>
<path d="M96.1924 152.033C95.9554 151.957 95.7184 151.864 95.473 151.805C94.0765 151.475 93.7803 151.119 93.7803 149.698C93.7803 146.473 93.7803 143.257 93.7803 139.931H100.974V140.963H95.0921V145.187H100.458C100.483 145.576 100.509 145.881 100.534 146.295H95.0413C95.0413 147.666 95.0075 148.936 95.0752 150.188C95.0837 150.383 95.5661 150.696 95.8369 150.696C97.5126 150.747 99.1884 150.722 100.991 150.722C101.05 150.882 101.16 151.179 101.304 151.551C100.729 151.72 100.221 151.873 99.7131 152.025H96.1839L96.1924 152.033Z" fill="white"/>
<path d="M62.9144 152.034C59.9692 151.153 60.587 151.001 60.5531 148.564C60.5108 145.712 60.5447 142.859 60.5447 139.923H67.7047C67.9755 140.625 67.857 140.989 66.9853 140.972C65.3011 140.938 63.6253 140.964 61.8734 140.964V145.187H67.2476V146.321H61.8057C61.8057 147.65 61.7719 148.885 61.8396 150.112C61.848 150.333 62.2712 150.688 62.5166 150.696C64.0146 150.739 65.5211 150.773 67.0107 150.671C67.7554 150.62 68.0432 150.781 67.9416 151.602C67.4592 151.737 66.9514 151.89 66.4436 152.034H62.9144Z" fill="white"/>
<path d="M208.594 142.969C207.951 144.56 207.29 146.151 206.681 147.759C206.47 148.318 206.207 148.572 205.572 148.546C204.963 148.529 204.582 148.428 204.345 147.768C203.761 146.16 203.076 144.577 202.441 142.994C202.348 142.994 202.255 143.003 202.153 143.011V151.754H199.8C199.961 147.785 200.114 143.841 200.274 139.812H203.033C203.812 141.886 204.599 143.993 205.505 146.422C205.987 145.169 206.351 144.205 206.723 143.24C206.893 142.791 207.062 142.351 207.231 141.903C207.812 140.345 208.986 139.637 210.752 139.778C210.913 143.731 211.074 147.7 211.234 151.745H208.958V142.994C208.839 142.986 208.721 142.977 208.602 142.969H208.594Z" fill="white"/>
<path d="M279.516 151.83C278.772 151.83 278.069 151.915 277.409 151.797C277.07 151.737 276.69 151.365 276.503 151.035C275.166 148.64 273.88 146.211 272.568 143.799C272.399 143.486 272.221 143.181 271.899 142.631V151.763H269.86V139.719C270.588 139.719 271.315 139.643 272.018 139.753C272.323 139.796 272.661 140.159 272.83 140.464C274.193 142.935 275.513 145.424 276.85 147.903C277.02 148.217 277.206 148.513 277.477 148.978V139.796H279.525V151.83H279.516Z" fill="white"/>
<path d="M52.3521 140.074C51.3534 143.815 50.3717 147.564 49.3307 151.288C49.263 151.534 48.7298 151.821 48.459 151.788C48.0866 151.737 47.5449 151.466 47.4264 151.161C46.7324 149.274 46.14 147.344 45.5222 145.432C45.4122 145.102 45.3021 144.772 45.099 144.154C44.5574 145.719 44.1173 147.023 43.6518 148.318C43.2879 149.316 42.9493 150.323 42.4839 151.28C42.3484 151.559 41.8406 151.771 41.4852 151.796C41.2313 151.813 40.7743 151.517 40.715 151.28C39.691 147.548 38.7092 143.807 37.7021 139.981C38.2353 139.88 38.5823 139.82 39.0477 139.736C39.8687 143.24 40.6812 146.718 41.4936 150.188C41.5783 150.197 41.6714 150.205 41.756 150.213C42.2553 148.859 42.7716 147.505 43.2625 146.143C43.5079 145.457 43.8041 144.763 43.9395 144.052C44.1934 142.766 44.3373 141.462 44.5574 139.998C44.5997 139.998 44.9467 139.956 45.2852 139.914C46.267 143.375 47.2402 146.769 48.2051 150.163C48.3151 150.163 48.4251 150.163 48.5436 150.154C48.9244 148.665 49.3307 147.184 49.6777 145.694C50.067 144.052 50.4902 142.419 50.7356 140.751C50.9049 139.6 51.4127 139.66 52.3606 140.074H52.3521Z" fill="white"/>
<path d="M221.906 151.762H219.757C219.757 150.721 219.757 149.748 219.757 148.766C219.757 146.202 219.782 143.637 219.74 141.073C219.723 140.294 219.968 139.888 220.747 139.854C222.126 139.795 223.523 139.592 224.894 139.71C227.247 139.905 228.423 141.318 228.457 143.637C228.482 146.176 227.289 147.691 224.945 148.03C224.293 148.123 223.624 148.165 222.973 148.123C222.177 148.072 221.83 148.309 221.898 149.164C221.966 149.993 221.915 150.831 221.915 151.762H221.906ZM221.906 141.648C221.906 142.529 221.906 143.214 221.906 143.908C221.906 145.567 222.741 146.312 224.411 146.142C225.969 145.982 226.197 145.745 226.273 144.221C226.366 142.444 225.757 141.716 223.988 141.572C223.345 141.521 222.693 141.615 221.898 141.648H221.906Z" fill="white"/>
<path d="M132.838 151.678C132.838 150.476 132.838 149.241 132.838 147.996C132.838 145.686 132.881 143.367 132.813 141.057C132.788 140.193 133.101 139.829 133.896 139.796C135.064 139.753 136.241 139.635 137.4 139.736C138.594 139.838 139.601 140.422 139.982 141.657C140.388 142.961 140.261 144.196 139.22 145.212C139.067 145.356 138.915 145.5 138.695 145.711C139.745 146.236 140.608 146.812 140.726 148.03C140.929 150.18 140.142 151.373 137.984 151.636C136.334 151.839 134.641 151.678 132.838 151.678ZM134.159 150.756C135.445 150.679 136.613 150.679 137.764 150.519C139.017 150.341 139.533 149.689 139.533 148.538C139.533 147.455 138.957 146.651 137.798 146.482C136.622 146.304 135.42 146.338 134.159 146.278V150.756ZM134.099 145.212C135.301 145.212 136.325 145.246 137.341 145.195C137.663 145.178 138.077 145.026 138.272 144.789C138.915 144.019 139.152 143.113 138.814 142.131C138.475 141.141 137.629 140.887 136.723 140.811C136.071 140.752 135.403 140.76 134.751 140.862C134.506 140.904 134.133 141.268 134.116 141.505C134.049 142.698 134.083 143.9 134.083 145.22L134.099 145.212Z" fill="white"/>
<path d="M109.954 151.729V140.016C111.976 139.542 113.974 139.347 115.963 140.126C117.181 140.6 118.002 141.598 118.163 142.825C118.383 144.577 118.485 146.397 118.29 148.14C118.053 150.231 116.614 151.475 114.541 151.703C113.068 151.864 111.553 151.737 109.962 151.737L109.954 151.729ZM111.265 140.921V150.772C112.679 150.679 113.982 150.586 115.294 150.502C116.039 150.451 116.487 150.078 116.733 149.368C117.427 147.336 117.571 145.297 117.004 143.215C116.741 142.241 116.166 141.505 115.218 141.124C113.914 140.608 112.577 140.735 111.274 140.913L111.265 140.921Z" fill="white"/>
<path d="M236.379 139.77H238.435V149.79H243.733V151.728H236.379V139.77Z" fill="white"/>
<path d="M6.00694 147.929V151.771H4.73744C4.73744 151.373 4.73744 150.976 4.73744 150.586C4.73744 147.362 4.75436 144.137 4.72897 140.913C4.72897 140.286 4.88978 139.939 5.54992 139.906C6.81942 139.846 8.10584 139.635 9.36688 139.745C11.4319 139.922 12.566 141.404 12.5914 143.629C12.6168 145.923 11.6012 147.303 9.52768 147.641C8.41898 147.819 7.2849 147.836 6.00694 147.929ZM6.08311 146.71C7.47109 146.634 8.81676 146.575 10.154 146.482C10.3232 146.473 10.5094 146.363 10.6364 146.245C12.0836 144.89 11.3642 141.48 9.45997 141.006C8.40206 140.743 7.24258 140.845 6.08311 140.777V146.71Z" fill="white"/>
<path d="M148.098 140.058C148.699 139.905 149.046 139.821 149.299 139.761C150.417 141.776 151.466 143.739 152.6 145.652C153.336 146.896 153.675 146.888 154.42 145.618C155.528 143.731 156.561 141.793 157.687 139.77C157.924 139.829 158.296 139.914 158.787 140.032C157.687 142.673 156.392 145.102 154.665 147.302C154.411 147.632 154.2 148.081 154.166 148.487C154.098 149.545 154.141 150.603 154.141 151.746H152.973C152.939 151.695 152.896 151.661 152.896 151.636C152.863 150.324 153.125 148.91 152.719 147.717C152.338 146.574 151.178 145.711 150.527 144.636C149.655 143.206 148.944 141.683 148.098 140.066V140.058Z" fill="white"/>
<path d="M189.103 139.761H191.142V151.762H189.103V139.761Z" fill="white"/>
<path d="M10.7293 67.4424C8.80816 68.6273 5.36358 71.2001 5.57517 79.7312V82.9303H0.996506V90.6235H5.57517V125.365H16.4167V90.6235H25.464V82.9303H16.4167V79.9343C16.4167 77.7761 16.7552 76.3204 17.4408 75.5587C18.1178 74.797 19.582 72.8166 25.6502 73.6206L25.7856 65.7921C22.8234 64.8357 15.8243 64.294 10.7293 67.4509V67.4424Z" fill="white"/>
<path d="M65.5634 111.418L65.6819 98.3079C65.6819 93.433 64.277 90.0815 63.3121 88.2619C62.3473 86.4338 60.68 84.9358 58.3103 83.7509C55.9406 82.5661 52.3437 81.9736 47.5026 81.9736C42.1792 81.9736 39.0562 83.1923 36.3564 85.1643C33.6566 87.1363 31.0669 90.8601 30.449 96.5559H40.8759C40.8759 96.5559 40.9859 88.9982 48.8229 89.396C52.5129 89.5822 54.4426 93.0521 54.4426 95.2103L54.3325 99.3319C54.3325 99.3319 48.679 98.7479 43.5757 99.5181C35.2393 100.779 31.4054 105.493 30.2967 107.372C29.188 109.251 28.6379 111.392 28.6379 113.787C28.6379 117.41 29.8566 120.406 32.2856 122.775C34.7145 125.145 38.0406 126.33 42.2638 126.33C44.659 126.33 46.9102 125.864 49.0176 124.933C51.1249 124.003 52.8684 122.936 54.6795 119.585C54.7557 119.796 55.5513 125.374 55.5513 125.374H66.4182C65.4618 123.351 65.5634 115.158 65.5634 111.426V111.418ZM54.3749 112.213C53.6724 115.971 49.7285 118.171 46.8425 118.171C43.034 118.171 40.0041 116.098 40.3088 111.866C40.6558 106.983 45.4207 105.62 54.8319 105.874C54.8319 105.874 55.0858 108.447 54.3749 112.222V112.213Z" fill="white"/>
<path d="M279.973 113.118L280.092 100.009C280.092 95.1339 278.687 91.7824 277.722 89.9628C276.757 88.1347 275.09 86.6367 272.72 85.4519C270.35 84.267 266.754 83.6746 261.912 83.6746C256.589 83.6746 253.466 84.8933 250.766 86.8652C248.066 88.8372 245.477 92.5611 244.859 98.2569H255.286C255.286 98.2569 255.396 90.6991 263.233 91.0969C266.923 91.2831 268.852 94.7531 268.852 96.9112L268.742 101.033C268.742 101.033 263.089 100.449 257.986 101.219C249.649 102.48 245.815 107.194 244.707 109.073C243.598 110.952 243.048 113.093 243.048 115.488C243.048 119.111 244.266 122.107 246.695 124.476C249.124 126.846 252.45 128.031 256.674 128.031C259.069 128.031 261.32 127.565 263.427 126.634C265.535 125.703 267.278 124.637 269.089 121.286C269.166 121.497 269.961 127.075 269.961 127.075H280.828C279.872 125.052 279.973 116.859 279.973 113.127V113.118ZM268.785 113.914C268.082 117.672 264.138 119.872 261.252 119.872C257.444 119.872 254.414 117.799 254.719 113.567C255.066 108.684 259.831 107.321 269.242 107.575C269.242 107.575 269.496 110.148 268.785 113.922V113.914Z" fill="white"/>
<path d="M92.0957 89.6839C98.0878 89.7686 100.051 95.2613 100.424 97.4702L111.189 97.7579C110.317 92.3753 107.11 87.5258 104.063 85.2999C101.016 83.0741 96.9114 81.9654 91.7403 81.9654C85.4266 81.9654 80.4248 83.9204 76.7263 87.822C73.0279 91.7236 71.1744 97.1824 71.1744 104.182C71.1744 111.181 73.0194 116.53 76.7009 120.448C80.3909 124.367 85.3335 126.322 91.5372 126.322C96.996 126.322 108.498 124.231 111.181 110.055L100.415 109.945C99.8566 112.899 96.9452 118.171 92.0788 118.171C89.2267 118.171 86.8231 116.927 85.1389 114.854C83.4462 112.78 81.9313 108.515 81.9313 103.488C81.9313 98.9597 83.7509 89.5654 92.0873 89.6839H92.0957Z" fill="white"/>
<path d="M131.95 74.814L120.482 74.7294V84.7161H114.329V92.2146H120.482V110.978C120.482 115.006 120.736 117.664 120.846 119.001C121.269 124.198 123.774 129.157 139.728 126.804L139.711 119.805C139.711 119.805 131.975 122.302 131.941 113.906V92.2062H140.667V84.7077H131.941V74.8056L131.95 74.814Z" fill="white"/>
<path d="M165.541 83.6663C161.385 83.6663 157.627 84.5888 154.259 86.4253C150.891 88.2619 148.284 90.9278 146.447 94.4147C144.611 97.9016 143.688 101.515 143.688 105.239C143.688 110.114 144.611 114.253 146.447 117.647C148.284 121.04 150.967 123.622 154.496 125.374C158.025 127.134 161.732 128.014 165.617 128.014C171.897 128.014 177.11 125.907 181.257 121.684C185.396 117.46 187.469 112.145 187.469 105.722C187.469 99.2981 185.421 94.0847 181.316 89.9207C177.212 85.7483 171.956 83.6663 165.541 83.6663ZM172.946 116.428C170.966 118.874 168.503 120.101 165.574 120.101C162.646 120.101 160.183 118.874 158.186 116.428C156.189 113.982 155.19 110.453 155.19 105.84C155.19 101.228 156.189 97.707 158.186 95.2526C160.183 92.8067 162.646 91.5795 165.574 91.5795C168.503 91.5795 170.957 92.8067 172.946 95.2526C174.926 97.6985 175.925 101.202 175.925 105.747C175.925 110.292 174.935 113.973 172.946 116.419V116.428Z" fill="white"/>
<path d="M210.337 85.2917C206.901 87.5176 205.521 91.3345 205.521 91.3345V84.6316H193.842V127.067H205.428V113.957C205.428 106.738 205.75 101.998 206.393 99.7301C207.036 97.4704 210.168 91.7915 218.758 92.841V84.183C218.758 84.183 214.23 82.7612 210.337 85.2832V85.2917Z" fill="white"/>
<path d="M234.728 84.6226H223.887V127.058H234.728V84.6226Z" fill="white"/>
<path d="M289.562 0.928986H255.81C252.544 0.928986 239.129 5.06755 239.019 5.21989H276.808C282.622 5.21989 287.328 9.39231 287.328 14.5465V58.158C287.328 63.3037 282.969 67.1292 277.155 67.1292H240.67L224.217 79.4264H234.102L256.851 71.6993H289.562C295.376 71.6993 300.082 66.4859 300.082 60.6716V11.4489C300.082 5.6346 295.368 0.928986 289.562 0.928986Z" fill="white"/>
<path d="M255.954 58.7418V40.114H265.729V43.2116H259.61V47.5448H264.832V50.6424H259.61V58.7418H255.954Z" fill="white"/>
<path d="M278.941 51.8023C278.611 45.3617 272.424 45.7679 271.637 46.1573L271.798 43.1697H278.128V39.8859H268.844L267.955 49.7796C267.955 49.7796 269.834 48.8571 271.18 48.8571C273.296 48.8571 275.014 50.4058 275.014 52.327C275.014 54.2482 273.296 55.797 271.18 55.797C269.893 55.797 268.531 55.2469 267.845 54.3582L266.94 57.5828C266.94 57.5828 269.106 59.1823 272.669 59.1823C274.785 59.1823 279.228 57.405 278.941 51.8023Z" fill="white"/>
</svg>
